<svg width="110" height="30" viewBox="0 0 110 30" fill="none" xmlns="http://www.w3.org/2000/svg">
<path d="M27 7.36736C26.1166 7.76965 25.1678 8.04037 24.1718 8.16248C25.189 7.53774 25.969 6.54858 26.3363 5.36916C25.3856 5.94751 24.3315 6.36779 23.2091 6.59496C22.3109 5.61337 21.0316 5 19.6157 5C16.8964 5 14.6922 7.26135 14.6922 10.049C14.6922 10.4446 14.7365 10.8308 14.8195 11.1991C10.7277 10.9889 7.10015 8.97842 4.67071 5.9229C4.24795 6.6688 4.00519 7.53585 4.00519 8.46254C4.00519 10.2137 4.87377 11.7594 6.19465 12.6643C5.38791 12.6378 4.62825 12.4107 3.96458 12.033C3.96458 12.0548 3.96458 12.0746 3.96458 12.0964C3.96458 14.5433 5.66113 16.5841 7.91427 17.0469C7.50167 17.1624 7.066 17.224 6.61648 17.224C6.29987 17.224 5.99065 17.1918 5.69067 17.134C6.31741 19.1398 8.1358 20.6004 10.2902 20.6411C8.60563 21.9956 6.48264 22.803 4.17503 22.803C3.77812 22.803 3.38583 22.7794 3 22.732C5.1793 24.1642 7.76659 25 10.5477 25C19.6046 25 24.5558 17.3063 24.5558 10.634C24.5558 10.4153 24.5512 10.1976 24.5419 9.98083C25.5047 9.26807 26.34 8.37924 27 7.36736Z" fill="#06335B"/>
<path d="M64.68 4.91998H49.32C47.9952 4.91998 46.92 5.99518 46.92 7.31998V22.68C46.92 24.0048 47.9952 25.08 49.32 25.08H64.68C66.0048 25.08 67.08 24.0048 67.08 22.68V7.31998C67.08 5.99518 66.0048 4.91998 64.68 4.91998ZM62.76 12.12H61.8C60.7728 12.12 60.36 12.36 60.36 13.08V14.52H62.76L62.28 16.92H60.36V24.12H57.96V16.92H56.04V14.52H57.96V13.08C57.96 11.16 58.92 9.71998 60.84 9.71998C62.232 9.71998 62.76 10.2 62.76 10.2V12.12Z" fill="#06335B"/>
<path d="M93.5556 5C90.4922 5 88 7.49222 88 10.5556V19.4444C88 22.5078 90.4922 25 93.5556 25H102.444C105.508 25 108 22.5078 108 19.4444V10.5556C108 7.49222 105.508 5 102.444 5H93.5556ZM93.5556 7.22222H102.444C104.282 7.22222 105.778 8.71778 105.778 10.5556V19.4444C105.778 21.2822 104.282 22.7778 102.444 22.7778H93.5556C91.7178 22.7778 90.2222 21.2822 90.2222 19.4444V10.5556C90.2222 8.71778 91.7178 7.22222 93.5556 7.22222ZM103.556 8.33333C103.261 8.33333 102.978 8.4504 102.77 8.65877C102.562 8.86714 102.444 9.14976 102.444 9.44444C102.444 9.73913 102.562 10.0217 102.77 10.2301C102.978 10.4385 103.261 10.5556 103.556 10.5556C103.85 10.5556 104.133 10.4385 104.341 10.2301C104.55 10.0217 104.667 9.73913 104.667 9.44444C104.667 9.14976 104.55 8.86714 104.341 8.65877C104.133 8.4504 103.85 8.33333 103.556 8.33333ZM98 9.44444C94.9367 9.44444 92.4444 11.9367 92.4444 15C92.4444 18.0633 94.9367 20.5556 98 20.5556C101.063 20.5556 103.556 18.0633 103.556 15C103.556 11.9367 101.063 9.44444 98 9.44444ZM98 11.6667C99.8378 11.6667 101.333 13.1622 101.333 15C101.333 16.8378 99.8378 18.3333 98 18.3333C96.1622 18.3333 94.6667 16.8378 94.6667 15C94.6667 13.1622 96.1622 11.6667 98 11.6667Z" fill="#06335B"/>
</svg>
