<svg width="94" height="24" viewBox="0 0 94 24" fill="none" xmlns="http://www.w3.org/2000/svg">
<path d="M52.1812 0.00128306C51.7943 -0.0131916 51.4121 0.0950771 51.0837 0.312245C50.7552 0.529412 50.4956 0.845545 50.338 1.22009C50.1804 1.59464 50.132 2.01054 50.1992 2.41439C50.2663 2.81824 50.4457 3.19163 50.7146 3.48669C50.9835 3.78175 51.3295 3.98501 51.7081 4.07038C52.0868 4.15575 52.481 4.11932 52.84 3.96581C53.199 3.81229 53.5065 3.5487 53.7231 3.2088C53.9397 2.8689 54.0554 2.46822 54.0555 2.05816C54.0707 1.78994 54.0331 1.52131 53.9451 1.26928C53.8572 1.01724 53.7208 0.787283 53.5447 0.593946C53.3685 0.400609 53.1564 0.248091 52.9217 0.146072C52.687 0.0440522 52.4348 -0.00522776 52.1812 0.00128306Z" fill="#57CC99"/>
<path d="M70.3592 5.71735V18.5825H66.8833V8.84929H61.2628V14.1534C61.2628 15.2259 61.692 15.66 62.4367 15.6369C63.0041 15.6001 63.5578 15.4371 64.0617 15.1584L64.7879 17.8604C63.8223 18.4375 62.7329 18.7421 61.6243 18.7449C59.4555 18.7449 57.8078 17.4298 57.8078 14.7756V8.82535H53.9205V18.5766H50.451V5.71052H53.9286V6.28394H57.8119V2.75122H61.2628V6.29077H66.8849V5.71735H70.3592Z" fill="#57CC99"/>
<path d="M68.6222 0.00128306C68.2353 -0.0131916 67.8532 0.0950771 67.5248 0.312245C67.1963 0.529412 66.9367 0.845545 66.7791 1.22009C66.6215 1.59464 66.5731 2.01054 66.6402 2.41439C66.7073 2.81824 66.8868 3.19163 67.1557 3.48669C67.4246 3.78175 67.7705 3.98501 68.1492 4.07038C68.5279 4.15575 68.922 4.11932 69.2811 3.96581C69.6401 3.81229 69.9476 3.5487 70.1641 3.2088C70.3807 2.8689 70.4965 2.46822 70.4965 2.05816C70.5118 1.78991 70.4744 1.52122 70.3865 1.26912C70.2986 1.01703 70.1622 0.78705 69.986 0.593685C69.8098 0.40032 69.5976 0.247785 69.3629 0.145811C69.1281 0.0438364 68.8759 -0.00535739 68.6222 0.00128306Z" fill="#57CC99"/>
<path d="M12.0809 15.0917V18.5782H8.60343V0.837891H12.0809V10.5959L16.5283 5.74041H20.4802L16.0337 10.6908L20.6827 18.5765H16.5742L13.6389 13.3501L12.0809 15.0917Z" fill="#06335B"/>
<path d="M28.9698 17.075C28.4972 17.6445 27.9075 18.0916 27.2461 18.3818C26.5848 18.672 25.8694 18.7977 25.155 18.7491C22.5586 18.7491 20.9796 17.0751 20.9796 14.7328C20.9796 12.3204 22.6247 10.8822 25.6068 10.8583H28.9488V10.6181C28.9488 9.25087 28.0911 8.47406 26.4177 8.47406C25.1444 8.52549 23.9031 8.91137 22.8055 9.59695L21.7283 7.05465C23.4085 6.0821 25.2929 5.57368 27.2076 5.5763C30.46 5.5763 32.3335 7.29738 32.3561 10.1909L32.3787 18.5842H28.9681L28.9698 17.075ZM28.9472 14.1816V13.0339H26.2152C24.8831 13.0339 24.2287 13.4612 24.2287 14.4926C24.2287 15.4737 24.9549 16.1162 26.1264 16.1162C27.5925 16.118 28.7406 15.2814 28.9464 14.1816H28.9472Z" fill="#06335B"/>
<path d="M48.1429 12.2213C48.1429 16.118 45.9071 18.7252 42.495 18.7252C41.7379 18.7574 40.9851 18.5907 40.3036 18.24C39.6221 17.8893 39.0331 17.3656 38.589 16.7153V23.2193H35.1147V5.7182H38.5922V7.60676C39.0242 6.96057 39.6012 6.4384 40.2713 6.08737C40.9413 5.73634 41.6833 5.56746 42.4304 5.59599C45.8401 5.59685 48.1429 8.25704 48.1429 12.2213ZM44.6202 12.1017C44.6202 10.0448 43.4018 8.56213 41.6171 8.56213C39.8324 8.56213 38.5914 10.02 38.5914 12.1017C38.5914 14.2295 39.8324 15.6634 41.6171 15.6634C43.4018 15.6634 44.6202 14.2056 44.6202 12.1017Z" fill="#06335B"/>
<path d="M77.8106 5.21484V6.2873H80.6773V8.84582H77.8106V18.5765H74.3565V8.84921H72.7299V6.29074H74.3557V5.0713C74.3557 2.20174 76.3873 0.671266 78.8264 0.671266C79.9469 0.653234 81.0499 0.9679 82.0102 1.57964L80.7677 4.26031C80.3288 3.91235 79.7974 3.72005 79.2492 3.71083C79.0573 3.69108 78.8635 3.71627 78.6818 3.78458C78.5001 3.8529 78.3347 3.9627 78.1975 4.10619C78.0602 4.24967 77.9544 4.42334 77.8876 4.61493C77.8207 4.80651 77.7944 5.01131 77.8106 5.21484Z" fill="#06335B"/>
<path d="M88.6708 20.0164C87.8131 22.2946 86.3221 23.3884 84.2235 23.3884C83.017 23.4193 81.8424 22.9764 80.9259 22.145L82.3935 19.49C82.8196 19.9231 83.3837 20.1708 83.9741 20.1839C84.3204 20.19 84.66 20.0831 84.9469 19.8776C85.2337 19.6721 85.4539 19.378 85.5773 19.0354L85.9162 18.3184L80.8815 5.7207H84.4712L87.655 14.5661L90.5225 5.7207H94L88.6708 20.0164Z" fill="#06335B"/>
<path d="M2.75134 0.837891C3.29551 0.837891 3.82745 1.00879 4.27991 1.32899C4.73236 1.64918 5.08501 2.10429 5.29325 2.63675C5.50149 3.16921 5.55598 3.75512 5.44982 4.32038C5.34366 4.88564 5.08162 5.40486 4.69683 5.81239C4.31205 6.21992 3.82181 6.49745 3.2881 6.60989C2.75439 6.72233 2.20119 6.66462 1.69845 6.44407C1.19571 6.22352 0.766006 5.85002 0.463685 5.37082C0.161363 4.89161 0 4.32822 0 3.75189C0 2.97905 0.289873 2.23786 0.805849 1.69138C1.32183 1.1449 2.02164 0.837891 2.75134 0.837891Z" fill="#57CC99"/>
</svg>
