<svg width="18" height="18" viewBox="0 0 18 18" fill="none" xmlns="http://www.w3.org/2000/svg">
<path fill-rule="evenodd" clip-rule="evenodd" d="M8.99316 0C4.08449 0 0.105225 3.97927 0.105225 8.88794C0.105225 13.7966 4.08449 17.7759 8.99316 17.7759H13.4371C14.8176 17.7759 15.5078 17.7759 16.0522 17.5504C16.7781 17.2497 17.3549 16.6729 17.6556 15.947C17.8811 15.4025 17.8811 14.7123 17.8811 13.3319V8.88794C17.8811 3.97927 13.9018 0 8.99316 0ZM5.04297 7.90039C5.04297 7.35498 5.48511 6.91284 6.03052 6.91284H11.9558C12.5012 6.91284 12.9434 7.35498 12.9434 7.90039C12.9434 8.4458 12.5012 8.88794 11.9558 8.88794H6.03052C5.48511 8.88794 5.04297 8.4458 5.04297 7.90039ZM8.00562 11.8506C8.00562 11.3052 8.44776 10.863 8.99316 10.863H11.9558C12.5012 10.863 12.9434 11.3052 12.9434 11.8506C12.9434 12.396 12.5012 12.8381 11.9558 12.8381H8.99316C8.44776 12.8381 8.00562 12.396 8.00562 11.8506Z" fill="black"/>
</svg>
