<svg width="39" height="16" viewBox="0 0 39 16" fill="none" xmlns="http://www.w3.org/2000/svg">
<g filter="url(#filter0_d_24_385)">
<rect x="2" y="1" width="35" height="12" rx="6" fill="white"/>
</g>
<path d="M5.69713 5.94289C5.6863 6.03244 5.67738 6.12227 5.66429 6.2115C5.63087 6.43928 5.62683 6.66402 5.72321 6.88035C5.75827 6.95903 5.80252 7.03132 5.8675 7.08916C5.95635 7.16827 6.04415 7.16566 6.12898 7.08163C6.25258 6.95918 6.27253 6.80807 6.25067 6.64493C6.22814 6.47649 6.18768 6.31062 6.18876 6.13879C6.19135 5.72174 6.3676 5.39001 6.68287 5.12577C6.74144 5.07667 6.8073 5.03607 6.86966 4.99162C6.90679 4.96517 6.94459 4.93956 6.9834 4.91564C7.20636 4.77832 7.26694 4.57569 7.22231 4.33269C7.2042 4.23404 7.17922 4.13662 7.15693 4.03875C7.1493 4.00524 7.15747 3.98945 7.19256 4.00767C7.38464 4.10738 7.58421 4.19536 7.73029 4.36472C8.09923 4.79243 7.7661 5.37197 7.81042 5.86283C7.81604 5.93133 7.83038 5.99883 7.85308 6.06369C7.92852 6.2736 8.18126 6.52412 8.41723 6.3841C8.56651 6.29549 8.6456 6.10148 8.68533 5.94068C8.72672 5.76665 8.73023 5.58576 8.69563 5.41025C8.69224 5.39272 8.68864 5.37593 8.68482 5.35987C8.68301 5.35213 8.68379 5.344 8.68706 5.33674C8.69032 5.32949 8.69588 5.32351 8.70289 5.31973C8.70989 5.31595 8.71794 5.31458 8.7258 5.31584C8.73365 5.31709 8.74088 5.3209 8.74636 5.32667C8.9533 5.54451 9.27175 5.93087 9.44843 6.42444C9.51453 6.61576 9.56411 6.8124 9.59663 7.01219C9.62814 7.21159 9.64102 7.41349 9.6351 7.61528C9.62946 7.81451 9.60372 8.01266 9.55829 8.20672C9.51362 8.3979 9.44731 8.58337 9.36064 8.75954C9.27402 8.93521 9.16511 9.09897 9.0366 9.24678C8.90363 9.39882 8.75018 9.53164 8.58064 9.64143C8.54009 9.66771 8.49872 9.69266 8.45652 9.71628C7.37638 10.3213 5.93327 9.92629 5.3318 8.83895C4.89011 8.04048 4.85306 6.97216 5.44264 6.23501C5.52194 6.13586 5.59854 6.03458 5.67639 5.93429L5.69713 5.94289Z" fill="#FFE966"/>
<path d="M7.22231 4.3327C7.22802 4.36342 7.23199 4.39445 7.23423 4.42562C7.52566 4.84637 7.2249 5.39489 7.26715 5.86284C7.27277 5.93133 7.28711 5.99883 7.30982 6.0637C7.38526 6.2736 7.63799 6.52413 7.87396 6.3841C7.91839 6.35691 7.95746 6.32182 7.98924 6.28054C7.92976 6.21813 7.88345 6.14438 7.85306 6.0637C7.83036 5.99883 7.81603 5.93133 7.81041 5.86284C7.76609 5.37198 8.09922 4.79244 7.73029 4.36473C7.58421 4.19536 7.38463 4.10739 7.19254 4.00767C7.15746 3.98944 7.14928 4.00525 7.15692 4.03876C7.17922 4.13663 7.20419 4.23404 7.22231 4.3327ZM9.59662 7.01219C9.5641 6.8124 9.51452 6.61577 9.44842 6.42445C9.27174 5.93088 8.95329 5.54451 8.74635 5.32668C8.74087 5.3209 8.73365 5.31709 8.72579 5.31583C8.71793 5.31457 8.70987 5.31594 8.70286 5.31972C8.69586 5.32349 8.69029 5.32948 8.68703 5.33674C8.68376 5.344 8.68298 5.35213 8.6848 5.35988C8.68859 5.37591 8.69219 5.3927 8.69562 5.41026C8.73023 5.58576 8.72671 5.76665 8.68532 5.94068C8.68424 5.94509 8.683 5.9496 8.68186 5.95405C8.77111 6.10337 8.84589 6.26089 8.90516 6.42445C8.97126 6.61577 9.02084 6.81241 9.05336 7.01221C9.08487 7.2116 9.09775 7.4135 9.09184 7.61528C9.08619 7.81451 9.06045 8.01266 9.01502 8.20672C8.97035 8.39791 8.90404 8.58338 8.81737 8.75954C8.73075 8.93521 8.62184 9.09898 8.49333 9.24679C8.36037 9.39883 8.20691 9.53165 8.03737 9.64143C7.99682 9.66772 7.95545 9.69267 7.91325 9.71628C7.65649 9.85955 7.37391 9.95057 7.0818 9.9841C7.54721 10.038 8.03013 9.95512 8.45651 9.71628C8.49869 9.6927 8.54006 9.66775 8.58063 9.64143C8.75017 9.53165 8.90363 9.39883 9.03659 9.24679C9.1651 9.09898 9.274 8.93521 9.36062 8.75954C9.44729 8.58338 9.51361 8.39791 9.55828 8.20672C9.60371 8.01266 9.62945 7.81451 9.6351 7.61528C9.64101 7.4135 9.62813 7.21159 9.59662 7.01219ZM5.17993 6.88036C5.215 6.95904 5.25926 7.03133 5.32423 7.08917C5.41308 7.16828 5.50088 7.16567 5.58571 7.08163C5.65132 7.01778 5.69425 6.93421 5.70795 6.84369C5.63735 6.66384 5.63278 6.47844 5.65401 6.2905C5.64828 6.24014 5.64543 6.18948 5.64549 6.13879C5.64581 6.07826 5.65006 6.01781 5.65821 5.95783C5.58659 6.05041 5.51575 6.14361 5.44264 6.23501C5.31404 6.39629 5.21177 6.57689 5.13962 6.77013C5.1506 6.80772 5.16407 6.84455 5.17994 6.88035L5.17993 6.88036Z" fill="#FFE236"/>
<path d="M6.14603 7.92564C6.17675 8.01842 6.20676 8.11145 6.23834 8.20394C6.29478 8.36921 6.38512 8.51138 6.52974 8.6141C6.63221 8.68687 6.74495 8.72822 6.87364 8.72385C7.084 8.71671 7.21613 8.55765 7.18426 8.35043C7.15833 8.1818 7.08908 8.02871 7.02125 7.87479C6.93052 7.66897 6.83524 7.46537 6.77658 7.24667C6.66442 6.82843 6.77404 6.47549 7.08305 6.17891C7.14299 6.12137 7.20658 6.0676 7.26935 6.01306C7.28338 6.00087 7.29615 5.97667 7.3172 5.98536C7.33899 5.99436 7.3294 6.02023 7.3292 6.03848C7.32786 6.17613 7.32931 6.31369 7.34924 6.45015C7.39299 6.74981 7.53857 7.00053 7.72887 7.22967C7.89813 7.43345 8.09155 7.6152 8.26489 7.8153C8.43064 8.00665 8.57003 8.21309 8.66591 8.44948C8.79774 8.77445 8.755 9.07879 8.57107 9.3678C8.37175 9.68098 8.08127 9.86848 7.72229 9.95078C7.28283 10.0515 6.86085 10.0019 6.47627 9.76137C6.07795 9.51224 5.86483 9.15097 5.8762 8.67359C5.87999 8.51487 5.92092 8.36265 5.98606 8.21783C6.03057 8.11886 6.07906 8.02165 6.12576 7.92367L6.14603 7.92564Z" fill="#FFC166"/>
<path d="M5.9865 8.6141C6.08897 8.68687 6.2017 8.72822 6.33039 8.72385C6.42423 8.72066 6.50242 8.68718 6.55751 8.63276C6.54811 8.62676 6.53886 8.62053 6.52976 8.6141C6.38513 8.51138 6.2948 8.36922 6.23835 8.20394C6.20677 8.11146 6.17676 8.01842 6.14605 7.92564L6.12576 7.92366C6.07907 8.02165 6.03058 8.11886 5.98606 8.21783C5.94027 8.31771 5.90781 8.42318 5.88952 8.53152C5.91935 8.56184 5.95181 8.58948 5.9865 8.6141ZM8.66592 8.44948C8.57004 8.2131 8.43065 8.00665 8.26489 7.81529C8.09156 7.6152 7.89814 7.43345 7.72888 7.22966C7.53859 7.00052 7.39301 6.74981 7.34924 6.45014C7.32932 6.31369 7.32787 6.17612 7.32921 6.03848C7.3294 6.02023 7.33901 5.99436 7.31721 5.98536C7.29617 5.97667 7.28339 6.00088 7.26936 6.01306C7.20658 6.06759 7.143 6.12137 7.08306 6.17891C6.96775 6.28958 6.88024 6.4081 6.82163 6.53492C6.87837 6.79758 7.01358 7.02252 7.18563 7.22966C7.35488 7.43345 7.5483 7.6152 7.72164 7.81529C7.88739 8.00664 8.02678 8.21309 8.12266 8.44948C8.25449 8.77445 8.21176 9.07879 8.02782 9.36781C7.82851 9.68098 7.53802 9.86848 7.17905 9.95079C7.13206 9.96156 7.08529 9.97056 7.03873 9.97778C7.25964 10.0154 7.4885 10.0044 7.7223 9.95079C8.08128 9.86848 8.37178 9.68098 8.57108 9.36781C8.75501 9.07879 8.79774 8.77445 8.66592 8.44946V8.44948Z" fill="#FFB74E"/>
<path d="M14.9677 6.42971C14.9677 5.71131 14.5048 5.27494 13.7119 5.27494H12.1899V9H12.6582V7.57916H13.7119C14.5048 7.57916 14.9677 7.14811 14.9677 6.42971ZM14.4782 6.42971C14.4782 6.93525 14.244 7.15344 13.6746 7.15344H12.6582V5.70599H13.6746C14.244 5.70599 14.4782 5.92417 14.4782 6.42971ZM15.4265 7.65366C15.4158 8.41463 15.9959 9.09047 16.8101 9.0745C17.6243 9.09047 18.2043 8.41463 18.1937 7.65366C18.2043 6.89268 17.6243 6.21685 16.8101 6.23282C15.9959 6.21685 15.4158 6.89268 15.4265 7.65366ZM17.7254 7.65366C17.7254 7.94634 17.6402 8.19113 17.4699 8.37738C17.305 8.56364 17.0815 8.65942 16.8101 8.65942C16.5387 8.65942 16.3152 8.56364 16.1449 8.37738C15.9799 8.19113 15.8948 7.94634 15.8948 7.65366C15.8948 7.36098 15.9799 7.11619 16.1449 6.92993C16.3152 6.74368 16.5387 6.64789 16.8101 6.64789C17.0815 6.64789 17.305 6.74368 17.4699 6.92993C17.6402 7.11619 17.7254 7.36098 17.7254 7.65366ZM21.6842 7.65366C21.6842 6.8235 21.1414 6.23282 20.407 6.23282C19.9547 6.23282 19.5716 6.45632 19.4066 6.80222V6.30732H18.9596V10.0643H19.4066V8.5051C19.5716 8.851 19.9547 9.0745 20.407 9.0745C21.1414 9.0745 21.6842 8.48381 21.6842 7.65366ZM21.2159 7.65366C21.2159 7.94634 21.1308 8.19113 20.9605 8.37738C20.7955 8.56364 20.572 8.65942 20.3006 8.65942C20.0292 8.65942 19.8057 8.56364 19.6354 8.37738C19.4704 8.19113 19.3853 7.94634 19.3853 7.65366C19.3853 7.36098 19.4704 7.11619 19.6354 6.92993C19.8057 6.74368 20.0292 6.64789 20.3006 6.64789C20.572 6.64789 20.7955 6.74368 20.9605 6.92993C21.1308 7.11619 21.2159 7.36098 21.2159 7.65366ZM22.3986 7.99423C22.3986 8.63282 22.8616 9.0745 23.5587 9.0745C24.2558 9.0745 24.7188 8.63282 24.7188 7.99423V6.30732H24.2718V7.96763C24.2718 8.41463 24.011 8.65942 23.5587 8.65942C23.1064 8.65942 22.8456 8.41463 22.8456 7.96763V6.30732H22.3986V7.99423ZM25.6219 9H26.0689V5.10466H25.6219V9ZM29.111 6.30732V6.80222C28.9567 6.45632 28.5682 6.23282 28.1159 6.23282C27.3762 6.23282 26.8334 6.8235 26.8334 7.65366C26.8334 8.48381 27.3762 9.0745 28.1159 9.0745C28.5682 9.0745 28.9567 8.851 29.111 8.5051V9H29.558V6.30732H29.111ZM29.1323 7.65366C29.1323 7.94634 29.0472 8.19113 28.8769 8.37738C28.7119 8.56364 28.4884 8.65942 28.217 8.65942C27.9456 8.65942 27.7221 8.56364 27.5518 8.37738C27.3869 8.19113 27.3017 7.94634 27.3017 7.65366C27.3017 7.36098 27.3869 7.11619 27.5518 6.92993C27.7221 6.74368 27.9456 6.64789 28.217 6.64789C28.4884 6.64789 28.7119 6.74368 28.8769 6.92993C29.0472 7.11619 29.1323 7.36098 29.1323 7.65366ZM32.0285 6.302C31.9594 6.27539 31.8742 6.26474 31.7837 6.26474C31.3846 6.26474 31.0866 6.46696 30.9642 6.81286V6.30732H30.5172V9H30.9642V7.62173C30.9642 6.98847 31.2676 6.67982 31.7944 6.67982C31.8742 6.67982 31.9487 6.68514 32.0285 6.69579V6.302Z" fill="black"/>
<defs>
<filter id="filter0_d_24_385" x="0" y="0" width="39" height="16" filterUnits="userSpaceOnUse" color-interpolation-filters="sRGB">
<feFlood flood-opacity="0" result="BackgroundImageFix"/>
<feColorMatrix in="SourceAlpha" type="matrix" values="0 0 0 0 0 0 0 0 0 0 0 0 0 0 0 0 0 0 127 0" result="hardAlpha"/>
<feOffset dy="1"/>
<feGaussianBlur stdDeviation="1"/>
<feComposite in2="hardAlpha" operator="out"/>
<feColorMatrix type="matrix" values="0 0 0 0 0 0 0 0 0 0 0 0 0 0 0 0 0 0 0.15 0"/>
<feBlend mode="normal" in2="BackgroundImageFix" result="effect1_dropShadow_24_385"/>
<feBlend mode="normal" in="SourceGraphic" in2="effect1_dropShadow_24_385" result="shape"/>
</filter>
</defs>
</svg>
