<svg width="13" height="16" viewBox="0 0 13 16" fill="none" xmlns="http://www.w3.org/2000/svg">
<path fill-rule="evenodd" clip-rule="evenodd" d="M12.4372 2.29947L7.59735 0.225239C6.8966 -0.0750795 6.1034 -0.0750797 5.40265 0.225239L0.56279 2.29947C0.221369 2.44579 0 2.7815 0 3.15296V8.03065C0 9.82995 0.868952 11.5185 2.3331 12.5643L5.42056 14.7696C6.06628 15.2309 6.93372 15.2309 7.57944 14.7696L10.6669 12.5643C12.131 11.5185 13 9.82995 13 8.03065V3.15296C13 2.7815 12.7786 2.44579 12.4372 2.29947ZM10.0665 5.95125C10.4115 5.51999 10.3416 4.89069 9.91036 4.54568C9.4791 4.20068 8.8498 4.2706 8.50479 4.70186L5.48846 8.47228L4.42134 7.40516C4.03082 7.01464 3.39766 7.01464 3.00713 7.40516C2.61661 7.79569 2.61661 8.42885 3.00713 8.81938L4.46926 10.2815C5.10143 10.9137 6.14274 10.856 6.70122 10.1579L10.0665 5.95125Z" fill="#333333"/>
</svg>
