<svg width="44" height="16" viewBox="0 0 44 16" fill="none" xmlns="http://www.w3.org/2000/svg">
<g filter="url(#filter0_d_24_354)">
<rect x="2" y="1" width="40" height="12" rx="6" fill="white"/>
</g>
<path d="M8.59301 3.25068C8.7614 2.91644 9.23858 2.91644 9.40697 3.25068L9.85917 4.14825C9.96071 4.34986 10.1946 4.44672 10.409 4.37598L11.3634 4.06104C11.7188 3.94377 12.0562 4.2812 11.9389 4.63661L11.624 5.59103C11.5533 5.8054 11.6501 6.03925 11.8517 6.14082L12.7493 6.59301C13.0836 6.7614 13.0836 7.23858 12.7493 7.40697L11.8517 7.85917C11.6501 7.96071 11.5533 8.19458 11.624 8.40895L11.9389 9.36336C12.0562 9.71877 11.7188 10.0562 11.3634 9.93893L10.409 9.62398C10.1946 9.55326 9.96071 9.6501 9.85917 9.85171L9.40697 10.7493C9.23858 11.0836 8.7614 11.0836 8.59301 10.7493L8.14082 9.85171C8.03925 9.6501 7.8054 9.55326 7.59103 9.62398L6.63661 9.93893C6.2812 10.0562 5.94377 9.71877 6.06104 9.36336L6.37598 8.40895C6.44672 8.19458 6.34986 7.96071 6.14825 7.85917L5.25068 7.40697C4.91644 7.23858 4.91644 6.7614 5.25068 6.59301L6.14825 6.14082C6.34986 6.03925 6.44672 5.8054 6.37598 5.59103L6.06104 4.63661C5.94377 4.2812 6.2812 3.94377 6.63661 4.06104L7.59103 4.37598C7.8054 4.44672 8.03925 4.34986 8.14082 4.14825L8.59301 3.25068Z" fill="#57CC99"/>
<path d="M7.73425 7.1015L8.64569 8.01293L10.4686 6.19006" stroke="white" stroke-width="0.683576" stroke-linecap="round" stroke-linejoin="round"/>
<path d="M18.0865 4.77494L16.8466 7.93592L15.6067 4.77494H15.1171L16.6071 8.5H17.086L18.5761 4.77494H18.0865ZM21.2677 7.29202C21.2784 7.21219 21.2837 7.13237 21.2837 7.05255C21.2837 6.27029 20.7516 5.73282 20.0012 5.73282C19.2083 5.73282 18.6549 6.33415 18.6549 7.15898C18.6549 7.99446 19.2243 8.5745 20.0385 8.5745C20.5334 8.5745 20.9484 8.36164 21.2092 7.99446L20.9059 7.73902C20.6824 8.02106 20.395 8.15942 20.0491 8.15942C19.5223 8.15942 19.1604 7.82949 19.1125 7.29202H21.2677ZM19.1232 6.93015C19.203 6.4459 19.5276 6.14789 20.0012 6.14789C20.4695 6.14789 20.7835 6.43525 20.8261 6.93015H19.1232ZM23.5486 5.802C23.4794 5.77539 23.3943 5.76474 23.3038 5.76474C22.9047 5.76474 22.6067 5.96696 22.4843 6.31286V5.80732H22.0373V8.5H22.4843V7.12173C22.4843 6.48847 22.7876 6.17982 23.3144 6.17982C23.3943 6.17982 23.4688 6.18514 23.5486 6.19579V5.802ZM24.1089 4.93459C24.1089 5.1102 24.242 5.24324 24.4176 5.24324C24.5932 5.24324 24.7262 5.1102 24.7262 4.93459C24.7262 4.75898 24.5932 4.62594 24.4176 4.62594C24.242 4.62594 24.1089 4.75898 24.1089 4.93459ZM24.1941 8.5H24.6411V5.80732H24.1941V8.5ZM25.8151 8.5H26.2621V6.19047H27.0497V5.80732H26.2621V5.4082C26.2621 5.08359 26.3952 4.94523 26.7091 4.94523C26.8156 4.94523 26.9327 4.95588 27.0604 4.98248V4.60466C26.922 4.57273 26.7836 4.55676 26.6506 4.55676C26.0812 4.55676 25.8151 4.81752 25.8151 5.39756V5.80732H25.2617V6.19047H25.8151V8.5ZM27.5544 4.93459C27.5544 5.1102 27.6874 5.24324 27.863 5.24324C28.0387 5.24324 28.1717 5.1102 28.1717 4.93459C28.1717 4.75898 28.0387 4.62594 27.863 4.62594C27.6874 4.62594 27.5544 4.75898 27.5544 4.93459ZM27.6395 8.5H28.0865V5.80732H27.6395V8.5ZM31.469 7.29202C31.4797 7.21219 31.485 7.13237 31.485 7.05255C31.485 6.27029 30.9528 5.73282 30.2025 5.73282C29.4096 5.73282 28.8562 6.33415 28.8562 7.15898C28.8562 7.99446 29.4256 8.5745 30.2398 8.5745C30.7347 8.5745 31.1497 8.36164 31.4105 7.99446L31.1072 7.73902C30.8837 8.02106 30.5963 8.15942 30.2504 8.15942C29.7236 8.15942 29.3617 7.82949 29.3138 7.29202H31.469ZM29.3245 6.93015C29.4043 6.4459 29.7289 6.14789 30.2025 6.14789C30.6708 6.14789 30.9848 6.43525 31.0273 6.93015H29.3245ZM34.3246 4.60466V6.30222C34.1596 5.95632 33.7765 5.73282 33.3242 5.73282C32.5898 5.73282 32.047 6.3235 32.047 7.15366C32.047 7.98381 32.5898 8.5745 33.3242 8.5745C33.7765 8.5745 34.1596 8.351 34.3246 8.0051V8.5H34.7716V4.60466H34.3246ZM34.3459 7.15366C34.3459 7.44634 34.2607 7.69113 34.0905 7.87738C33.9255 8.06364 33.702 8.15942 33.4306 8.15942C33.1592 8.15942 32.9357 8.06364 32.7654 7.87738C32.6004 7.69113 32.5153 7.44634 32.5153 7.15366C32.5153 6.86098 32.6004 6.61619 32.7654 6.42993C32.9357 6.24368 33.1592 6.14789 33.4306 6.14789C33.702 6.14789 33.9255 6.24368 34.0905 6.42993C34.2607 6.61619 34.3459 6.86098 34.3459 7.15366Z" fill="black"/>
<defs>
<filter id="filter0_d_24_354" x="0" y="0" width="44" height="16" filterUnits="userSpaceOnUse" color-interpolation-filters="sRGB">
<feFlood flood-opacity="0" result="BackgroundImageFix"/>
<feColorMatrix in="SourceAlpha" type="matrix" values="0 0 0 0 0 0 0 0 0 0 0 0 0 0 0 0 0 0 127 0" result="hardAlpha"/>
<feOffset dy="1"/>
<feGaussianBlur stdDeviation="1"/>
<feComposite in2="hardAlpha" operator="out"/>
<feColorMatrix type="matrix" values="0 0 0 0 0 0 0 0 0 0 0 0 0 0 0 0 0 0 0.15 0"/>
<feBlend mode="normal" in2="BackgroundImageFix" result="effect1_dropShadow_24_354"/>
<feBlend mode="normal" in="SourceGraphic" in2="effect1_dropShadow_24_354" result="shape"/>
</filter>
</defs>
</svg>
